<svg id="Layer_1" data-name="Layer 1" 
    xmlns="http://www.w3.org/2000/svg" viewBox="0 0 860 750">
    <defs>
        <style>.cls-1{fill:#1d3557;}.cls-2{fill:#457b9d;}</style>
    </defs>
    <title>Initials</title>
    <path class="cls-1" d="M404.51,222.12V575.43H278.92v-16.9c-27.74,16.13-58.56,24.58-92.46,24.58C83.21,583.11,0,501.69,0,398.77,0,296.62,83.21,214.44,186.46,214.44c33.9,0,64.72,8.44,92.46,24.57V222.12ZM252.62,400.65c0-37.58-28.41-68.26-66-68.26-36.86,0-68.34,30.68-68.34,68.26,0,38.35,31.48,69,68.34,69C224.21,469.68,252.62,439,252.62,400.65Z"/>
    <path class="cls-1" d="M583.38,554v21.45H460.09V0H583.38V241.36c27-16.09,59.33-26.05,91.69-26.05C776,215.31,860,292.7,860,396.9c0,111.87-90.15,186.19-184.93,186.19C638.09,583.09,610.35,570.83,583.38,554ZM743.19,398.73c0-36.81-29.94-68.26-67.57-68.26-40.69,0-69.87,31.45-69.87,68.26,0,37.58,30,69,69.87,69C713.25,467.76,743.19,436.31,743.19,398.73Z"/>
    <rect class="cls-2" x="277.76" y="624.26" width="305.13" height="125.74"/>
</svg>